<svg width="222" height="43" viewBox="0 0 222 43" fill="none" xmlns="http://www.w3.org/2000/svg">
<rect width="221.767" height="42.0362" rx="6.72579" fill="#030303"/>
<rect x="1.68146" y="1.68143" width="59.271" height="38.6733" rx="5.04434" fill="white"/>
<path d="M31.7243 30.266V11.7701H35.8872V26.8628L34.7049 26.0243L46.1343 11.7701H50.5928L35.4931 30.266H31.7243ZM40.5428 21.2154L43.5479 18.5273L50.8638 30.266H46.0851L40.5428 21.2154Z" fill="#030303"/>
<path d="M14.6767 19.9823H21.7955C22.7316 19.9823 23.4705 19.7686 24.0124 19.3411C24.5708 18.8972 24.8499 18.2889 24.8499 17.5162C24.8499 16.7435 24.5708 16.1434 24.0124 15.7159C23.4705 15.2885 22.7316 15.0747 21.7955 15.0747H14.0609L15.9576 12.9292V30.266H11.7701V11.7701H22.2882C23.6347 11.7701 24.8171 12.0167 25.8352 12.51C26.8534 12.9867 27.6498 13.6526 28.2246 14.5075C28.7993 15.3624 29.0867 16.3653 29.0867 17.5162C29.0867 18.6506 28.7993 19.6453 28.2246 20.5002C27.6498 21.3551 26.8534 22.0292 25.8352 22.5224C24.8171 22.9992 23.6347 23.2376 22.2882 23.2376H14.6767V19.9823ZM17.879 21.61H22.6577L29.6286 30.266H24.7268L17.879 21.61Z" fill="#030303"/>
<path d="M71.5417 20.2076H75.9151C76.4901 20.2076 76.9441 20.0765 77.2771 19.8142C77.6201 19.5418 77.7916 19.1685 77.7916 18.6943C77.7916 18.2201 77.6201 17.8519 77.2771 17.5896C76.9441 17.3273 76.4901 17.1961 75.9151 17.1961H71.1633L72.3286 15.8796V26.5181H69.756V15.1683H76.2178C77.045 15.1683 77.7714 15.3196 78.3969 15.6223C79.0224 15.9149 79.5117 16.3235 79.8648 16.8481C80.2179 17.3727 80.3945 17.9881 80.3945 18.6943C80.3945 19.3904 80.2179 20.0008 79.8648 20.5254C79.5117 21.05 79.0224 21.4637 78.3969 21.7663C77.7714 22.0589 77.045 22.2052 76.2178 22.2052H71.5417V20.2076ZM73.5089 21.2064H76.4448L80.7274 26.5181H77.7159L73.5089 21.2064ZM89.3474 26.5181L88.9842 23.3704L89.3928 22.2203L88.9842 21.0853L89.3474 17.9074H91.9654L91.466 22.2203L91.9654 26.5181H89.3474ZM90.0133 22.2203C89.8519 23.1283 89.5542 23.9253 89.1204 24.6113C88.6967 25.2873 88.157 25.8119 87.5012 26.1852C86.8555 26.5584 86.1291 26.7451 85.322 26.7451C84.4847 26.7451 83.7432 26.5584 83.0975 26.1852C82.4518 25.8018 81.9474 25.2721 81.5842 24.5962C81.2311 23.9102 81.0545 23.1182 81.0545 22.2203C81.0545 21.3123 81.2311 20.5204 81.5842 19.8444C81.9474 19.1584 82.4518 18.6287 83.0975 18.2555C83.7432 17.8721 84.4847 17.6804 85.322 17.6804C86.1291 17.6804 86.8555 17.867 87.5012 18.2403C88.157 18.6136 88.7017 19.1433 89.1356 19.8293C89.5694 20.5052 89.8619 21.3022 90.0133 22.2203ZM83.612 22.2203C83.612 22.7247 83.7129 23.1686 83.9147 23.552C84.1265 23.9354 84.4141 24.238 84.7773 24.46C85.1404 24.6719 85.5591 24.7778 86.0333 24.7778C86.5075 24.7778 86.9514 24.6719 87.365 24.46C87.7887 24.238 88.162 23.9354 88.4848 23.552C88.8077 23.1686 89.0599 22.7247 89.2415 22.2203C89.0599 21.7159 88.8077 21.272 88.4848 20.8886C88.162 20.4951 87.7887 20.1925 87.365 19.9806C86.9514 19.7587 86.5075 19.6477 86.0333 19.6477C85.5591 19.6477 85.1404 19.7587 84.7773 19.9806C84.4141 20.1925 84.1265 20.4951 83.9147 20.8886C83.7129 21.272 83.612 21.7159 83.612 22.2203ZM102.766 23.8093C102.766 24.4247 102.584 24.9543 102.221 25.3982C101.868 25.8421 101.338 26.1801 100.632 26.4122C99.9257 26.6341 99.0631 26.7451 98.0442 26.7451C96.995 26.7451 96.0819 26.619 95.3051 26.3668C94.5283 26.1044 93.923 25.7362 93.4891 25.262C93.0553 24.7879 92.8233 24.238 92.793 23.6125H95.3656C95.4262 23.895 95.5775 24.1422 95.8196 24.3541C96.0618 24.5558 96.3745 24.7122 96.7579 24.8232C97.1513 24.9342 97.6053 24.9896 98.1198 24.9896C98.8361 24.9896 99.3759 24.9089 99.7391 24.7475C100.112 24.5861 100.299 24.344 100.299 24.0211C100.299 23.7891 100.168 23.6125 99.9055 23.4915C99.6533 23.3704 99.1842 23.2796 98.4982 23.2191L96.8941 23.098C95.9356 23.0173 95.1739 22.8559 94.609 22.6138C94.044 22.3716 93.6405 22.069 93.3983 21.7058C93.1663 21.3325 93.0503 20.9239 93.0503 20.48C93.0503 19.8646 93.242 19.3501 93.6253 18.9364C94.0087 18.5228 94.5434 18.2101 95.2294 17.9982C95.9256 17.7863 96.7276 17.6804 97.6356 17.6804C98.5637 17.6804 99.391 17.8065 100.117 18.0587C100.844 18.3109 101.424 18.659 101.858 19.1029C102.302 19.5468 102.554 20.0613 102.614 20.6465H100.042C100.001 20.4346 99.8854 20.2379 99.6937 20.0563C99.5121 19.8646 99.2447 19.7082 98.8916 19.5872C98.5385 19.4661 98.0795 19.4056 97.5145 19.4056C96.8789 19.4056 96.3896 19.4812 96.0466 19.6326C95.7036 19.7738 95.5321 19.9907 95.5321 20.2833C95.5321 20.4851 95.638 20.6515 95.8499 20.7827C96.0618 20.9037 96.4552 20.9895 97.0303 21.0399L99.1186 21.2064C100.047 21.2871 100.778 21.4435 101.313 21.6755C101.848 21.8975 102.221 22.19 102.433 22.5532C102.655 22.9164 102.766 23.3351 102.766 23.8093ZM103.912 17.8166L105.168 18.0587L106.439 17.8166V26.5181H103.912V17.8166ZM105.168 16.9237C104.714 16.9237 104.341 16.8077 104.048 16.5757C103.766 16.3336 103.624 16.0158 103.624 15.6223C103.624 15.2188 103.766 14.901 104.048 14.6689C104.341 14.4268 104.714 14.3057 105.168 14.3057C105.632 14.3057 106.005 14.4268 106.288 14.6689C106.57 14.901 106.712 15.2188 106.712 15.6223C106.712 16.0158 106.57 16.3336 106.288 16.5757C106.005 16.8077 105.632 16.9237 105.168 16.9237ZM110.57 24.4297L109.859 24.1725L114.974 17.9074H117.728L110.343 26.5181H108.043V14.8657H110.57V24.4297ZM112.522 22.296L114.384 20.8583L117.97 26.5181H115.08L112.522 22.296ZM122.324 26.5181V15.1683H124.882V24.4297L124.155 23.9152L131.177 15.1683H133.916L124.64 26.5181H122.324ZM127.742 20.9643L129.588 19.3148L134.083 26.5181H131.147L127.742 20.9643ZM141.96 26.5181L141.597 23.3704L142.005 22.2203L141.597 21.0853L141.96 17.9074H144.578L144.079 22.2203L144.578 26.5181H141.96ZM142.626 22.2203C142.465 23.1283 142.167 23.9253 141.733 24.6113C141.309 25.2873 140.77 25.8119 140.114 26.1852C139.468 26.5584 138.742 26.7451 137.935 26.7451C137.097 26.7451 136.356 26.5584 135.71 26.1852C135.064 25.8018 134.56 25.2721 134.197 24.5962C133.844 23.9102 133.667 23.1182 133.667 22.2203C133.667 21.3123 133.844 20.5204 134.197 19.8444C134.56 19.1584 135.064 18.6287 135.71 18.2555C136.356 17.8721 137.097 17.6804 137.935 17.6804C138.742 17.6804 139.468 17.867 140.114 18.2403C140.77 18.6136 141.314 19.1433 141.748 19.8293C142.182 20.5052 142.475 21.3022 142.626 22.2203ZM136.225 22.2203C136.225 22.7247 136.326 23.1686 136.527 23.552C136.739 23.9354 137.027 24.238 137.39 24.46C137.753 24.6719 138.172 24.7778 138.646 24.7778C139.12 24.7778 139.564 24.6719 139.978 24.46C140.401 24.238 140.775 23.9354 141.097 23.552C141.42 23.1686 141.673 22.7247 141.854 22.2203C141.673 21.7159 141.42 21.272 141.097 20.8886C140.775 20.4951 140.401 20.1925 139.978 19.9806C139.564 19.7587 139.12 19.6477 138.646 19.6477C138.172 19.6477 137.753 19.7587 137.39 19.9806C137.027 20.1925 136.739 20.4951 136.527 20.8886C136.326 21.272 136.225 21.7159 136.225 22.2203ZM145.557 17.9074H148.084L148.629 21.1913V26.5181H146.101V20.8129L145.557 17.9074ZM151.913 17.6804C152.73 17.6804 153.426 17.8469 154.001 18.1798C154.576 18.5026 155.015 18.9667 155.317 19.572C155.62 20.1773 155.771 20.8987 155.771 21.736V26.5181H153.244V22.1144C153.244 21.3375 153.058 20.7524 152.684 20.3589C152.311 19.9554 151.766 19.7536 151.05 19.7536C150.566 19.7536 150.137 19.8646 149.764 20.0865C149.4 20.2984 149.118 20.596 148.916 20.9794C148.724 21.3628 148.629 21.8218 148.629 22.3565L147.796 21.9176C147.897 21.0097 148.139 20.2429 148.523 19.6174C148.906 18.9919 149.39 18.5127 149.975 18.1798C150.561 17.8469 151.206 17.6804 151.913 17.6804ZM156.87 26.5181V24.7324L163.196 19.3299L164.891 19.7839H156.916V17.9074H165.859V19.6931L159.534 25.0956L158.081 24.6567H165.89V26.5181H156.87ZM174.806 26.5181L174.443 23.3704L174.851 22.2203L174.443 21.0853L174.806 17.9074H177.424L176.924 22.2203L177.424 26.5181H174.806ZM175.472 22.2203C175.31 23.1283 175.013 23.9253 174.579 24.6113C174.155 25.2873 173.615 25.8119 172.96 26.1852C172.314 26.5584 171.588 26.7451 170.78 26.7451C169.943 26.7451 169.202 26.5584 168.556 26.1852C167.91 25.8018 167.406 25.2721 167.043 24.5962C166.689 23.9102 166.513 23.1182 166.513 22.2203C166.513 21.3123 166.689 20.5204 167.043 19.8444C167.406 19.1584 167.91 18.6287 168.556 18.2555C169.202 17.8721 169.943 17.6804 170.78 17.6804C171.588 17.6804 172.314 17.867 172.96 18.2403C173.615 18.6136 174.16 19.1433 174.594 19.8293C175.028 20.5052 175.32 21.3022 175.472 22.2203ZM169.07 22.2203C169.07 22.7247 169.171 23.1686 169.373 23.552C169.585 23.9354 169.872 24.238 170.236 24.46C170.599 24.6719 171.018 24.7778 171.492 24.7778C171.966 24.7778 172.41 24.6719 172.823 24.46C173.247 24.238 173.62 23.9354 173.943 23.552C174.266 23.1686 174.518 22.7247 174.7 22.2203C174.518 21.7159 174.266 21.272 173.943 20.8886C173.62 20.4951 173.247 20.1925 172.823 19.9806C172.41 19.7587 171.966 19.6477 171.492 19.6477C171.018 19.6477 170.599 19.7587 170.236 19.9806C169.872 20.1925 169.585 20.4951 169.373 20.8886C169.171 21.272 169.07 21.7159 169.07 22.2203ZM178.402 17.9074H180.96L181.474 21.0097V26.5181H178.947V20.7373L178.402 17.9074ZM185.666 17.8166V19.9958C185.404 19.9352 185.142 19.8898 184.879 19.8596C184.617 19.8293 184.37 19.8142 184.138 19.8142C183.633 19.8142 183.179 19.9201 182.776 20.1319C182.372 20.3438 182.054 20.6717 181.822 21.1156C181.59 21.5595 181.474 22.1194 181.474 22.7954L180.945 22.1598C181.005 21.5444 181.116 20.9693 181.278 20.4346C181.439 19.8898 181.661 19.4157 181.944 19.0121C182.236 18.5985 182.594 18.2756 183.018 18.0436C183.442 17.8015 183.946 17.6804 184.531 17.6804C184.723 17.6804 184.915 17.6955 185.106 17.7258C185.308 17.746 185.495 17.7762 185.666 17.8166ZM186.533 17.8166L187.789 18.0587L189.06 17.8166V26.5181H186.533V17.8166ZM187.789 16.9237C187.335 16.9237 186.962 16.8077 186.669 16.5757C186.387 16.3336 186.245 16.0158 186.245 15.6223C186.245 15.2188 186.387 14.901 186.669 14.6689C186.962 14.4268 187.335 14.3057 187.789 14.3057C188.253 14.3057 188.626 14.4268 188.909 14.6689C189.191 14.901 189.333 15.2188 189.333 15.6223C189.333 16.0158 189.191 16.3336 188.909 16.5757C188.626 16.8077 188.253 16.9237 187.789 16.9237ZM193.1 29.242C192.535 29.242 192.026 29.1714 191.572 29.0302C191.118 28.8889 190.689 28.6821 190.285 28.4097V26.5937C190.709 26.8661 191.113 27.0629 191.496 27.1839C191.879 27.305 192.303 27.3655 192.767 27.3655C193.181 27.3655 193.549 27.2697 193.872 27.078C194.195 26.8964 194.462 26.5685 194.674 26.0944L198.261 17.9074H200.939L196.641 26.9115C196.379 27.4765 196.061 27.9305 195.688 28.2735C195.315 28.6165 194.906 28.8637 194.462 29.015C194.028 29.1664 193.574 29.242 193.1 29.242ZM193.645 25.9733L189.847 17.9074H192.631L196.112 25.9733H193.645ZM209.093 26.5181L208.73 23.3704L209.138 22.2203L208.73 21.0853L209.093 17.9074H211.711L211.211 22.2203L211.711 26.5181H209.093ZM209.759 22.2203C209.597 23.1283 209.3 23.9253 208.866 24.6113C208.442 25.2873 207.902 25.8119 207.247 26.1852C206.601 26.5584 205.874 26.7451 205.067 26.7451C204.23 26.7451 203.488 26.5584 202.843 26.1852C202.197 25.8018 201.693 25.2721 201.33 24.5962C200.976 23.9102 200.8 23.1182 200.8 22.2203C200.8 21.3123 200.976 20.5204 201.33 19.8444C201.693 19.1584 202.197 18.6287 202.843 18.2555C203.488 17.8721 204.23 17.6804 205.067 17.6804C205.874 17.6804 206.601 17.867 207.247 18.2403C207.902 18.6136 208.447 19.1433 208.881 19.8293C209.315 20.5052 209.607 21.3022 209.759 22.2203ZM203.357 22.2203C203.357 22.7247 203.458 23.1686 203.66 23.552C203.872 23.9354 204.159 24.238 204.523 24.46C204.886 24.6719 205.304 24.7778 205.779 24.7778C206.253 24.7778 206.697 24.6719 207.11 24.46C207.534 24.238 207.907 23.9354 208.23 23.552C208.553 23.1686 208.805 22.7247 208.987 22.2203C208.805 21.7159 208.553 21.272 208.23 20.8886C207.907 20.4951 207.534 20.1925 207.11 19.9806C206.697 19.7587 206.253 19.6477 205.779 19.6477C205.304 19.6477 204.886 19.7587 204.523 19.9806C204.159 20.1925 203.872 20.4951 203.66 20.8886C203.458 21.272 203.357 21.7159 203.357 22.2203Z" fill="white"/>
</svg>
